PathFileType	4	(X/Y/Z)	C:/Users/beibeiliu/ov580/test_trc/User2\sequence.33_training_dense_right.trc
DataRate	CameraRate	NumFrames	NumMarkers	Units	OrigDataRate	OrigDataStartFrame	OrigNumFrames
120	120	10	19	mm	120	160	424
Frame#	Time	ThumbCMC			ThumbMCP			ThumbIP			ThumbTip			IndexMCP			IndexPIP			IndexTip			MiddleMCP			MiddlePIP			MiddleTip			RingMCP			RingPIP			RingTip			PinkyMCP			PinkyPIP			PinkyTip			BackHand1			BackHand2			BackHand3	
		X0	Y0	Z0	X1	Y1	Z1	X2	Y2	Z2	X3	Y3	Z3	X4	Y4	Z4	X5	Y5	Z5	X6	Y6	Z6	X7	Y7	Z7	X8	Y8	Z8	X9	Y9	Z9	X10	Y10	Z10	X11	Y11	Z11	X12	Y12	Z12	X13	Y13	Z13	X14	Y14	Z14	X15	Y15	Z15	X16	Y16	Z16	X17	Y17	Z17	X18	Y18	Z18	
159	1.325	60.8071	-24.4338	12.6739	34.5802	-24.3092	-8.81282	10.1664	-27.2773	-31.0899	-9.0645	-46.3231	-48.5186	28.9138	-69.2093	-52.2929	-0.866639	-70.0125	-47.486	-6.62577	-53.1101	-13.1619	27.1211	-90.1543	-43.8411	-11.2773	-85.1499	-27.7584	-6.75641	-68.5518	3.67781	19.8301	-103.216	-27.2204	-8.70551	-92.8788	-12.2346	3.30954	-73.8658	15.1896	23.0633	-114.682	-8.35535	-4.66462	-98.1914	7.7177	11.0082	-77.709	26.4513	76.8637	-98.3816	4.89176	91.5795	-88.3588	30.7029	86.1469	-61.7871	1.09536	
160	1.33333	55.7595	-29.782	16.3693	27.6245	-19.5756	-1.45744	0.545498	-24.3662	-23.7161	-18.4836	-45.8935	-37.4559	20.7598	-68.6654	-43.4867	-9.42475	-70.7107	-33.9344	-9.48857	-54.6361	2.73332	15.1821	-89.0052	-36.2438	-16.8536	-82.775	-17.4977	-9.54098	-68.9262	15.4296	10.2411	-104.42	-18.7714	-12.173	-92.7801	-1.12477	4.8153	-73.4714	26.1991	16.2514	-116.58	1.24785	-4.90611	-99.2308	16.1875	9.84722	-81.7321	37.7646	74.9741	-95.5803	7.73621	91.3712	-87.8295	31.699	82.1297	-56.0746	5.22761	
161	1.34167	54.1944	-26.1979	24.4159	22.3834	-21.6881	6.48473	-7.21266	-29.5594	-14.1048	-24.762	-45.2432	-20.8579	13.9521	-70.1778	-33.1575	-16.5369	-73.024	-18.8859	-11.5088	-55.1478	15.3565	8.20008	-89.0731	-25.5767	-19.4506	-89.2108	-4.48402	-12.4249	-66.4609	27.7155	7.33405	-106.019	-6.25083	-15.3599	-94.9126	13.8419	0.378411	-75.4286	36.689	13.005	-115.569	11.91	-6.35299	-101.467	33.1221	13.0524	-82.3115	50.7104	70.0481	-94.3232	8.62072	93.9217	-83.1095	36.7544	80.375	-55.6004	8.8725	
162	1.35	50.6851	-26.914	28.0671	17.7533	-20.6021	15.9761	-11.9153	-29.7107	1.98867	-31.6372	-48.1474	-3.60169	7.56157	-71.3326	-20.6902	-22.2515	-74.2431	-4.9608	-17.5482	-55.7432	24.616	2.01063	-91.8955	-12.5414	-25.5304	-86.2552	9.58124	-10.2374	-64.2997	42.9757	1.65931	-104.537	4.96603	-18.4573	-94.4229	26.0464	4.50769	-72.6584	48.375	12.638	-119.507	24.2568	-6.19484	-98.6849	45.5446	18.0112	-79.7907	58.703	65.7733	-98.4904	15.023	92.3887	-85.2174	38.1088	72.2188	-55.2639	10.4627	
163	1.35833	47.6912	-23.0389	35.4921	12.0233	-23.3743	25.3966	-19.949	-34.0944	16.6546	-39.4549	-51.5572	13.8878	-6.33996	-70.0867	-10.4294	-28.3289	-72.126	10.37	-13.6347	-56.0218	42.1326	-2.81071	-91.2331	-2.06883	-28.0902	-89.7594	26.3944	-13.5556	-66.0287	53.1498	-2.20521	-107.702	18.6002	-18.8804	-96.7468	44.2256	2.81671	-75.1362	61.3401	8.61666	-116.654	36.031	-5.61687	-96.7013	57.6388	20.0346	-75.78	68.3639	63.8507	-94.7402	20.1213	89.4545	-83.5205	38.6708	70.3572	-54.7197	18.3252	
164	1.36667	42.9709	-25.5398	41.2995	6.68394	-22.5098	36.8813	-27.5434	-35.4038	29.8197	-43.5169	-52.8293	32.0426	-9.76816	-74.0991	1.4647	-34.4334	-70.1873	26.5431	-17.8051	-56.5256	51.5533	-10.4023	-92.6731	11.2238	-31.3267	-87.0461	40.0922	-10.0554	-64.9949	67.2481	-5.99203	-107.735	30.8032	-18.7813	-95.9473	56.8192	6.69382	-72.1772	69.9946	7.81821	-117.62	46.8276	-4.3075	-99.271	73.2435	22.5878	-74.1956	76.5414	60.8589	-96.2436	25.8214	89.4563	-80.7036	45.0143	65.3832	-54.057	22.5328	
165	1.375	39.7524	-24.489	47.3157	0.92622	-23.539	46.5446	-35.2206	-37.4558	41.8173	-48.7604	-59.6737	44.6427	-15.7029	-72.2106	10.4856	-38.0408	-73.8675	38.5421	-20.0876	-57.839	61.5784	-9.52822	-98.1495	22.2944	-30.9802	-91.2883	54.828	-8.86174	-68.0807	77.4492	-5.87051	-111.353	41.437	-19.6271	-96.9841	64.1412	8.58821	-74.1263	77.1899	4.57074	-114.279	55.4335	-3.13798	-97.1145	78.4082	23.9755	-74.1053	83.065	59.0866	-91.2977	29.8439	84.4691	-79.6785	45.2332	59.2139	-53.2014	24.9663	
166	1.38333	31.4877	-26.1366	50.0242	-3.32363	-26.385	53.1195	-35.6108	-35.7441	54.0345	-50.6933	-58.5906	55.5641	-19.6207	-77.4405	19.8099	-39.1151	-77.7876	47.8216	-20.5885	-58.9398	69.5948	-17.6404	-96.7645	28.6816	-34.316	-90.2126	61.1557	-9.34282	-64.2032	81.3995	-7.35969	-111.036	46.8973	-16.7161	-98.9931	76.3523	8.00927	-73.9608	81.3409	8.44724	-115.603	59.0881	-0.407436	-97.622	87.2656	20.5026	-74.1878	83.0371	51.239	-90.9417	31.9582	79.709	-77.298	45.8174	54.6847	-51.8324	26.2241	
167	1.39167	28.4113	-21.5294	54.7997	-5.57723	-24.2661	59.2272	-42.115	-40.2667	58.7344	-54.0849	-60.3547	64.4057	-27.3334	-73.8634	24.2286	-44.1607	-77.1793	51.7232	-18.5044	-59.2497	75.9543	-20.572	-95.469	33.269	-34.8259	-92.853	66.4435	-7.16478	-66.4091	87.2108	-9.0801	-111.197	51.9085	-18.9213	-96.6042	81.2792	8.43052	-74.5878	84.9743	6.72506	-117.466	66.1379	-1.2719	-96.4357	89.4659	22.5927	-74.3515	87.3456	48.1172	-91.1665	34.539	79.448	-75.5995	46.3036	50.806	-52.3377	28.1001	
168	1.4	26.6151	-19.2788	58.6206	-7.82245	-26.2135	63.3908	-38.7015	-39.7928	66.0911	-54.4168	-61.5299	68.9247	-27.842	-73.033	28.8005	-43.1619	-78.6117	60.5309	-21.1101	-60.0057	79.2045	-21.4139	-95.4315	36.9862	-36.3775	-92.9549	71.066	-8.26767	-69.0673	89.1867	-10.4671	-112.741	56.5644	-17.3788	-97.4779	87.739	8.48304	-71.409	85.1735	3.30705	-117.89	72.5953	-0.359645	-93.4274	92.7671	22.5697	-72.0398	91.2282	47.6168	-90.2614	34.9145	73.5741	-73.5497	43.8223	48.5964	-50.7384	32.2552	
